<?xml version="1.0" standalone="no"?>
<!DOCTYPE svg PUBLIC "-//W3C//DTD SVG 20010904//EN"
 "http://www.w3.org/TR/2001/REC-SVG-20010904/DTD/svg10.dtd">
<svg version="1.0" xmlns="http://www.w3.org/2000/svg"
 width="512.000000pt" height="512.000000pt" viewBox="0 0 512.000000 512.000000"
 preserveAspectRatio="xMidYMid meet">
<metadata>
Created by potrace 1.11, written by Peter Selinger 2001-2013
</metadata>
<g transform="translate(0.000000,512.000000) scale(0.100000,-0.100000)"
fill="#000000" stroke="none">
<path d="M2529 4205 c-62 -295 -117 -542 -121 -548 -5 -8 -29 9 -70 51 l-64
62 -482 0 c-379 0 -482 -3 -482 -12 0 -7 -26 -45 -58 -84 -31 -38 -76 -95
-100 -126 l-43 -56 126 -190 126 -191 85 50 c47 27 87 49 89 49 2 0 39 -48 81
-107 43 -60 116 -157 162 -216 69 -88 87 -106 98 -96 8 6 72 103 142 216 89
143 131 202 142 199 8 -2 53 -18 99 -35 46 -17 86 -31 88 -31 2 0 15 27 30 60
19 44 30 59 42 56 9 -2 350 -76 759 -163 408 -87 742 -162 742 -167 0 -5 -21
-43 -47 -85 -239 -384 -690 -652 -1140 -678 l-113 -6 0 154 -1 154 -150 -155
c-82 -85 -212 -221 -289 -301 l-139 -146 287 -298 287 -298 3 151 3 151 57 6
c226 23 362 61 526 145 137 69 244 148 366 270 225 225 376 505 439 814 11 54
22 100 24 102 2 2 118 -20 258 -50 139 -30 254 -54 255 -53 4 4 314 1460 312
1462 -2 1 -492 106 -1091 234 -598 128 -1095 235 -1105 238 -16 4 -30 -52
-133 -532z m1208 160 c526 -113 958 -207 959 -208 1 -1 -56 -267 -126 -592
-97 -450 -130 -590 -141 -588 -14 2 -321 68 -366 78 -21 5 -23 11 -23 78 0 98
-13 113 -29 33 -7 -36 -18 -71 -24 -79 -10 -12 -122 10 -741 143 -402 86 -731
161 -733 167 -3 9 229 1118 242 1161 3 6 9 12 15 12 6 0 441 -92 967 -205z"/>
<path d="M3443 4265 c-18 -7 -33 -18 -33 -23 0 -5 -24 -14 -52 -20 -77 -15
-144 -47 -164 -77 -23 -36 -9 -76 31 -89 17 -6 31 -11 33 -12 1 0 -5 -17 -13
-37 -34 -82 -6 -180 60 -211 19 -10 33 -22 29 -27 -3 -5 -9 -23 -14 -40 -8
-25 -4 -35 21 -63 16 -19 29 -43 29 -55 0 -12 5 -31 11 -42 8 -16 6 -35 -10
-82 -25 -72 -25 -77 -8 -77 7 0 22 28 33 63 12 38 26 62 34 62 24 0 23 -32 -1
-116 -12 -43 -20 -81 -16 -85 13 -13 25 8 42 70 l18 65 51 -1 c28 -1 60 -7 71
-15 24 -16 59 -17 87 -2 16 9 24 8 36 -5 13 -13 14 -21 3 -57 -7 -22 -10 -43
-7 -46 10 -11 24 8 30 42 5 27 12 35 28 35 17 0 19 -4 14 -32 -17 -95 -18
-118 -7 -118 6 0 11 1 11 3 0 28 34 163 42 168 6 4 26 5 44 2 40 -7 77 14 98
56 9 16 27 32 41 35 34 9 59 49 52 85 -5 22 0 34 19 51 13 13 24 34 24 46 0
13 8 25 19 29 10 3 24 19 31 35 12 28 6 70 -9 70 -5 0 -22 14 -39 31 -31 32
-56 35 -103 15 -12 -5 -20 1 -29 24 -17 41 -51 62 -93 59 -26 -3 -42 4 -68 25
-27 23 -40 27 -71 23 -34 -5 -39 -2 -44 19 -3 13 -12 28 -20 35 -8 6 -14 28
-14 49 0 41 -37 97 -80 123 -39 23 -110 29 -147 12z m124 -25 c44 -20 83 -69
83 -106 0 -11 -9 -29 -20 -39 -17 -15 -24 -16 -45 -7 -14 6 -25 18 -25 25 0
10 -12 14 -37 13 -30 -1 -39 4 -49 23 -7 13 -20 28 -28 33 -24 14 -20 57 7 68
35 14 69 11 114 -10z m-148 -126 c28 -36 26 -70 -5 -99 -34 -32 -68 -32 -99 0
-34 33 -33 77 1 104 37 29 78 27 103 -5z m160 -90 c28 -35 26 -69 -4 -99 -49
-50 -135 -17 -135 52 0 65 99 98 139 47z m237 -51 c15 -22 25 -29 35 -22 17
11 70 12 85 1 7 -4 19 -24 27 -44 10 -23 23 -38 33 -38 21 0 43 -28 44 -55 0
-11 9 -26 19 -32 11 -7 22 -26 26 -43 6 -26 2 -37 -20 -60 -20 -21 -25 -33
-20 -53 10 -37 -20 -77 -56 -77 -24 0 -29 -4 -29 -24 0 -45 -77 -85 -107 -55
-8 8 -17 5 -32 -10 -28 -28 -59 -26 -93 6 -26 25 -29 25 -46 10 -25 -23 -65
-21 -86 2 -15 16 -23 18 -46 9 -36 -12 -67 3 -76 37 -4 16 -16 27 -33 31 -40
10 -51 23 -51 65 0 28 -5 39 -18 44 -11 3 -24 17 -31 31 -18 39 8 74 55 74 47
0 94 21 142 64 l40 36 9 -36 c11 -50 53 -82 87 -66 43 19 59 66 53 153 -3 43
-2 80 1 84 17 17 67 -2 88 -32z m280 -108 c3 -8 14 -17 24 -20 34 -11 37 -66
4 -79 -20 -8 -36 9 -68 71 -18 37 -22 53 -13 56 16 6 47 -11 53 -28z"/>
<path d="M3335 4079 c-7 -10 21 -38 38 -39 11 0 8 25 -5 38 -15 15 -25 15 -33
1z"/>
<path d="M3490 3985 c-11 -13 -9 -15 12 -15 13 0 30 -6 37 -12 10 -11 12 -8 9
12 -4 30 -38 39 -58 15z"/>
<path d="M352 3027 c-77 -7 -102 -13 -98 -22 2 -7 8 -76 12 -154 7 -138 8
-142 33 -160 105 -73 505 -311 511 -304 4 4 22 33 39 65 l32 56 -83 69 c-46
38 -154 126 -240 197 -87 71 -158 131 -158 134 0 3 6 13 14 21 30 35 68 111
54 110 -7 -1 -59 -6 -116 -12z"/>
<path d="M3220 2947 c0 -7 14 -35 31 -62 23 -36 29 -53 22 -65 -5 -8 -100 -96
-210 -195 -111 -99 -202 -186 -202 -193 -2 -20 63 -102 76 -97 13 4 329 220
421 287 l52 39 0 118 c0 84 -4 122 -13 129 -11 10 -150 52 -169 52 -5 0 -8 -6
-8 -13z"/>
<path d="M2626 1179 c-3 -17 -6 -60 -6 -95 l0 -64 -815 0 -815 0 -1 68 c-1
109 -5 110 -81 21 -38 -43 -68 -83 -68 -89 0 -7 25 -55 54 -108 30 -54 62
-109 70 -124 l15 -28 825 0 824 0 22 38 c12 20 41 71 63 112 22 41 44 79 48
85 5 5 9 15 9 23 0 10 -92 142 -130 185 -4 5 -10 -6 -14 -24z"/>
</g>
</svg>
