<?xml version="1.0" encoding="utf-8"?>
<!-- Generator: Adobe Illustrator 21.0.0, SVG Export Plug-In . SVG Version: 6.00 Build 0)  -->
<svg version="1.1" id="blur_xA0_Image_1_" xmlns="http://www.w3.org/2000/svg" xmlns:xlink="http://www.w3.org/1999/xlink" x="0px"
	 y="0px" viewBox="0 0 112 149" style="enable-background:new 0 0 112 149;" xml:space="preserve">
<g>
	<g>
		<path d="M55.7,147.5c-38.5,0.2-62.3-40.1-44-72.3c4.1-7.2,9.1-13.9,14-20.6C35.4,41.1,43.7,27,46.1,10.2C46.2,9,47.5,7.1,48.5,7
			c1.3-0.2,3.1,0.7,4.2,1.6c1.4,1.3,2.5,3.1,3.6,4.8c13,19.9,26.2,39.7,38.9,59.8c10,16,10.3,32.9,1.2,49.3
			C87.2,138.8,72.7,146.8,55.7,147.5z M51.4,19.3c-3.7,14.5-10.6,26.4-18.8,37.7c-4.8,6.6-9.5,13.2-13.9,20.1
			c-6.1,9.6-7.9,20.2-5.1,31.1c4.3,17.3,15.5,28.3,33,31.5c17.2,3.1,31.8-2.8,41.6-17.5c10-14.7,10.2-30.4,0.8-45.6
			c-11.3-18.2-23.3-36-35-54C53.3,21.7,52.6,20.9,51.4,19.3z" fill="#7e8792"/>
		<path d="M78.5,83.4c6.8,4,9.7,10.1,10.3,17.2c1,10.6-6.9,23.2-16.8,27.3c-3.8,1.5-7.5,1.8-10.5-1.6c-3.2-3.6-2.6-7.3-0.2-11
			c1-1.5,2.1-3.1,3.4-4.3C72.4,103.5,79.1,95.6,78.5,83.4z" fill="#7e8792"/>
	</g>
</g>
</svg>
