<?xml version="1.0" encoding="iso-8859-1"?>
<!-- Generator: Adobe Illustrator 16.0.0, SVG Export Plug-In . SVG Version: 6.00 Build 0)  -->
<!DOCTYPE svg PUBLIC "-//W3C//DTD SVG 1.1//EN" "http://www.w3.org/Graphics/SVG/1.1/DTD/svg11.dtd">
<svg version="1.1" id="Capa_1" xmlns="http://www.w3.org/2000/svg" xmlns:xlink="http://www.w3.org/1999/xlink" x="0px" y="0px"
	 width="512px" height="512px" viewBox="0 0 512 512" style="enable-background:new 0 0 512 512;" xml:space="preserve">
<g>
	<path d="M256,128c-70.692,0-128,57.308-128,128c0,70.691,57.308,128,128,128c70.691,0,128-57.309,128-128
		C384,185.308,326.691,128,256,128z M256,336V176c44.111,0,80,35.888,80,80C336,300.111,300.111,336,256,336z M256,416
		c17.673,0,32,14.327,32,32v32c0,17.673-14.327,32-32,32s-32-14.327-32-32v-32C224,430.327,238.327,416,256,416z M256,96
		c-17.673,0-32-14.327-32-32V32c0-17.673,14.327-32,32-32s32,14.327,32,32v32C288,81.673,273.673,96,256,96z M480,224
		c17.674,0,32,14.327,32,32s-14.326,32-32,32h-32c-17.674,0-32-14.327-32-32s14.326-32,32-32H480z M96,256c0,17.673-14.327,32-32,32
		H32c-17.673,0-32-14.327-32-32s14.327-32,32-32h32C81.673,224,96,238.327,96,256z M414.393,369.137l22.627,22.629
		c12.496,12.495,12.496,32.759,0,45.254c-12.496,12.496-32.758,12.496-45.254,0l-22.629-22.627
		c-12.496-12.496-12.496-32.759,0-45.256C381.635,356.641,401.896,356.641,414.393,369.137z M97.608,142.863L74.98,120.235
		c-12.497-12.497-12.497-32.758,0-45.255s32.758-12.497,45.255,0l22.628,22.628c12.497,12.497,12.497,32.758,0,45.255
		C130.366,155.36,110.105,155.36,97.608,142.863z M414.393,142.863c-12.496,12.496-32.758,12.496-45.256,0
		c-12.496-12.497-12.496-32.758,0-45.255l22.629-22.627c12.496-12.497,32.758-12.497,45.254,0s12.496,32.758,0,45.255
		L414.393,142.863z M97.608,369.137c12.496-12.496,32.758-12.496,45.254,0c12.497,12.497,12.497,32.76,0,45.256l-22.627,22.627
		c-12.497,12.496-32.758,12.496-45.255,0c-12.497-12.495-12.497-32.759,0-45.254L97.608,369.137z" fill="#7e8792"/>
</g>
<g>
</g>
<g>
</g>
<g>
</g>
<g>
</g>
<g>
</g>
<g>
</g>
<g>
</g>
<g>
</g>
<g>
</g>
<g>
</g>
<g>
</g>
<g>
</g>
<g>
</g>
<g>
</g>
<g>
</g>
</svg>
