<?xml version="1.0" encoding="iso-8859-1"?>
<!-- Generator: Adobe Illustrator 16.0.0, SVG Export Plug-In . SVG Version: 6.00 Build 0)  -->
<!DOCTYPE svg PUBLIC "-//W3C//DTD SVG 1.1//EN" "http://www.w3.org/Graphics/SVG/1.1/DTD/svg11.dtd">
<svg version="1.1" id="Capa_1" xmlns="http://www.w3.org/2000/svg" xmlns:xlink="http://www.w3.org/1999/xlink" x="0px" y="0px"
	 width="893px" height="893px" viewBox="0 0 893 893" style="enable-background:new 0 0 893 893;" xml:space="preserve">
<g>
	<path d="M130.777,130.776c-40.994,40.994-73.183,88.74-95.673,141.914C11.811,327.762,0,386.239,0,446.5
		s11.811,118.738,35.104,173.81c22.491,53.175,54.68,100.921,95.673,141.914c40.994,40.993,88.74,73.184,141.914,95.673
		C327.762,881.19,386.239,893,446.5,893s118.738-11.81,173.81-35.104c53.174-22.49,100.921-54.681,141.914-95.674
		c40.994-40.994,73.184-88.739,95.673-141.914C881.19,565.238,893,506.761,893,446.5s-11.81-118.738-35.104-173.81
		c-22.491-53.174-54.681-100.92-95.674-141.914c-40.994-40.993-88.739-73.183-141.914-95.673C565.238,11.811,506.761,0,446.5,0
		S327.762,11.811,272.69,35.104C219.517,57.594,171.77,89.783,130.777,130.776z M446.5,818c-99.231,0-192.523-38.643-262.69-108.81
		C113.643,639.023,75,545.731,75,446.5s38.643-192.523,108.81-262.69C253.977,113.643,347.269,75,446.5,75V818z" fill="#7e8792"/>
</g>
<g>
</g>
<g>
</g>
<g>
</g>
<g>
</g>
<g>
</g>
<g>
</g>
<g>
</g>
<g>
</g>
<g>
</g>
<g>
</g>
<g>
</g>
<g>
</g>
<g>
</g>
<g>
</g>
<g>
</g>
</svg>
