<?xml version="1.0" encoding="utf-8"?>
<!-- Generator: Adobe Illustrator 21.0.0, SVG Export Plug-In . SVG Version: 6.00 Build 0)  -->
<svg version="1.1" id="grayscale_xA0_Image_1_" xmlns="http://www.w3.org/2000/svg" xmlns:xlink="http://www.w3.org/1999/xlink"
	 x="0px" y="0px" viewBox="0 0 16.5 16.5" style="enable-background:new 0 0 16.5 16.5;" xml:space="preserve">
<style type="text/css">
	.st0{fill:#0f1010;}
</style>
<g>
	<g>
		<path d="M8.1,0.3c0.6,0,1.2,0,1.7,0.2c0.8,0.2,1.6,0.4,2.3,0.9c0.8,0.4,1.4,1,2,1.6c0.5,0.5,0.8,1,1.2,1.6
			c0.3,0.5,0.5,1.1,0.7,1.7c0.1,0.4,0.2,0.7,0.2,1.1c0.1,0.5,0.1,0.9,0,1.4c0,0.6-0.1,1.3-0.3,1.9c-0.3,0.9-0.7,1.7-1.2,2.4
			c-0.6,0.8-1.3,1.5-2.1,2c-0.7,0.5-1.5,0.8-2.3,1c-0.5,0.1-1,0.2-1.5,0.2c-0.4,0-0.8,0-1.2,0c-0.8,0-1.5-0.2-2.2-0.5
			c-0.7-0.3-1.4-0.6-2-1.1c-0.7-0.5-1.2-1.1-1.7-1.7c-0.4-0.6-0.8-1.3-1-2c-0.2-0.5-0.3-1-0.4-1.5C0.2,8.8,0.2,8.2,0.2,7.6
			c0-0.6,0.1-1.1,0.3-1.7c0.2-0.5,0.4-1,0.6-1.5c0.4-0.8,1-1.5,1.7-2.2c0.7-0.7,1.5-1.2,2.4-1.5c0.5-0.2,1-0.3,1.6-0.4
			C7.3,0.3,7.7,0.3,8.1,0.3z M4.4,13.5C4.4,13.5,4.4,13.5,4.4,13.5C4.4,13.5,4.4,13.5,4.4,13.5c-0.1-0.6-0.2-1.1-0.1-1.7
			c0-0.3,0.1-0.7,0.3-1c0.3-0.6,0.7-1.1,1.2-1.6c0.5-0.4,1.1-0.7,1.7-0.9c0.4-0.1,0.8-0.2,1.2-0.2c0.3,0,0.6-0.1,0.8-0.1
			c0.5-0.1,1-0.3,1.4-0.6c0.4-0.3,0.8-0.6,1-1.1c0.2-0.3,0.3-0.7,0.3-1.1c0-0.3,0-0.6,0-0.9c-0.1-0.5-0.4-0.9-0.7-1.3
			c-0.3-0.3-0.7-0.6-1.1-0.8C9.7,2.1,9,1.9,8.3,1.9c-0.2,0-0.5,0-0.7,0C7.2,1.9,7,1.9,6.7,2C6,2.1,5.4,2.4,4.8,2.8
			C4.5,3,4.1,3.2,3.8,3.5C3.4,3.9,3,4.4,2.7,4.9c-0.6,0.9-0.8,1.9-0.9,3c0,0.3,0,0.6,0,0.8c0,0.3,0,0.5,0.1,0.8
			c0.1,0.6,0.3,1.2,0.6,1.8c0.4,0.8,0.9,1.5,1.6,2C4.2,13.4,4.3,13.5,4.4,13.5z" fill="#7e8792"/>
		<path class="st0" d="M4.4,13.5c-0.1-0.1-0.2-0.2-0.3-0.2c-0.6-0.6-1.2-1.3-1.6-2C2.2,10.7,2,10.1,1.9,9.5c0-0.3-0.1-0.5-0.1-0.8
			c0-0.3,0-0.6,0-0.8c0.1-1.1,0.3-2.1,0.9-3c0.3-0.5,0.7-1,1.1-1.4c0.3-0.3,0.6-0.5,1-0.8C5.4,2.4,6,2.1,6.7,2
			C7,1.9,7.2,1.9,7.5,1.9c0.2,0,0.5,0,0.7,0c0.7,0,1.4,0.2,2,0.5c0.4,0.2,0.8,0.5,1.1,0.8c0.4,0.4,0.6,0.8,0.7,1.3
			c0.1,0.3,0.1,0.6,0,0.9c0,0.4-0.1,0.8-0.3,1.1c-0.2,0.5-0.6,0.8-1,1.1C10.4,7.9,10,8,9.5,8.1C9.2,8.2,8.9,8.2,8.6,8.3
			c-0.4,0-0.8,0.1-1.2,0.2C6.8,8.6,6.2,8.9,5.7,9.3c-0.5,0.4-0.9,0.9-1.2,1.6c-0.1,0.3-0.2,0.6-0.3,1C4.2,12.4,4.2,12.9,4.4,13.5
			C4.4,13.5,4.4,13.5,4.4,13.5C4.4,13.5,4.4,13.5,4.4,13.5z" fill="#7e8792"/>
	</g>
</g>
</svg>
