<?xml version="1.0" encoding="utf-8"?>
<!-- Generator: Adobe Illustrator 21.0.0, SVG Export Plug-In . SVG Version: 6.00 Build 0)  -->
<svg version="1.1" id="hue_xA0_Image_1_" xmlns="http://www.w3.org/2000/svg" xmlns:xlink="http://www.w3.org/1999/xlink" x="0px"
	 y="0px" viewBox="0 0 200 200" style="enable-background:new 0 0 200 200;" xml:space="preserve">
<g>
	<g>
		<path d="M1,109c11.1,0,22.3,0,32.3,0c4.7,11.5,9.1,22.2,13.4,32.7c-7,7-14.9,14.8-23.2,23.1c-2.7-3.9-6.1-8.4-8.9-13.1
			C8,141,4,129.3,2,116.8c-0.2-1.3-0.6-2.5-1-3.8C1,111.7,1,110.3,1,109z" fill="#7e8792"/>
		<path d="M1,89c1.3-5.6,2.4-11.4,4-16.9C8.8,59,15.2,47.3,23.6,37.2c8,8,15.8,15.8,23.1,23.1C42.6,70.4,38.2,81.1,33.2,93
			c-9.7,0-21,0-32.2,0C1,91.7,1,90.3,1,89z" fill="#7e8792"/>
		<path d="M93,1c0,11.1,0,22.2,0,31.9c-11.8,4.9-22.4,9.4-33,13.8c-7-7-14.8-14.8-22.9-22.9c9.9-8.6,21.8-14.9,35-18.8
			C77.7,3.4,83.4,2.3,89,1C90.3,1,91.7,1,93,1z" fill="#7e8792"/>
		<path d="M89,201c-5.6-1.3-11.3-2.4-16.9-4c-13.1-3.8-24.8-10.1-34.8-18.6c7.9-7.9,15.8-15.6,23.2-23c9.8,4.2,20.4,8.6,32.5,13.8
			c0,9.4,0,20.6,0,31.8C91.7,201,90.3,201,89,201z" fill="#7e8792"/>
		<path d="M109,201c0-11.1,0-22.2,0-31.7c11.9-4.9,22.6-9.2,33.1-13.5c6.9,6.8,14.6,14.5,22.9,22.8c-4.9,3.2-10.2,7.1-15.9,10.4
			c-10.3,5.9-21.5,9.6-33.3,11.2c-1,0.1-1.9,0.6-2.8,0.9C111.7,201,110.3,201,109,201z" fill="#7e8792"/>
		<path d="M201,113c-1.3,5.6-2.4,11.4-4.1,16.9c-3.8,13.1-10.2,24.8-18.6,34.9c-7.8-7.8-15.3-15.4-23.1-23.2
			c2.5-4.7,5.7-10.3,8.3-16.1c1.7-3.8,2.8-7.9,3.4-11.9c0.5-3.3,1.8-4.4,5.1-4.3c9.6,0.1,19.3-0.1,28.9-0.2
			C201,110.3,201,111.7,201,113z" fill="#7e8792"/>
	</g>
</g>
</svg>
