<?xml version="1.0" encoding="utf-8"?>
<!-- Generator: Adobe Illustrator 21.0.0, SVG Export Plug-In . SVG Version: 6.00 Build 0)  -->
<svg version="1.1" id="invert_xA0_Image_1_" xmlns="http://www.w3.org/2000/svg" xmlns:xlink="http://www.w3.org/1999/xlink"
	 x="0px" y="0px" viewBox="0 0 933 942" style="enable-background:new 0 0 933 942;" xml:space="preserve">
<g>
	<g>
		<path d="M463.6,21.1c112.1,0,224.2,0,336.3,0c52.6,0,97.6,34.7,110.1,85.3c2.2,9,3.4,18.5,3.4,27.8c0.2,224.6,0.2,449.2,0.1,673.8
			c0,57-41.4,104.3-97.9,112.1c-5.3,0.7-10.7,1-16.1,1c-224,0-448,0.1-671.9,0c-55.8,0-101.6-37.8-112.1-92.6
			c-1.3-6.8-1.8-13.9-1.8-20.9c-0.1-224.4-0.1-448.7-0.1-673.1c0-57.2,40.7-104.1,97.5-112.4c5.8-0.8,11.7-1,17.6-1
			C240.4,21.1,352,21.1,463.6,21.1z M828.4,107.6c-68.4,68.4-136.6,136.6-204.9,204.9c40.9,42.2,63.4,93,65,152.3
			c1.6,59.4-17.5,111.8-57.2,156.2c-37.2,41.7-84,66.6-139.5,73.2c-72.3,8.6-134.7-13.8-186.8-63.1
			c-68.3,68.3-136.5,136.5-204.8,204.8c7.7,7.4,17.4,10.3,28.4,10.3c223.3-0.1,446.7,0,670,0c1.2,0,2.5,0.2,3.7-0.1
			c5-1.1,10.3-1.5,14.8-3.6c15.1-7,21.5-19.6,21.5-35.9c0-223.6,0-447.2,0-670.8c0-1.5,0-3-0.1-4.5
			C837.8,122.1,834.6,114.1,828.4,107.6z M622.1,311.6c-87.2-87.3-231.8-88.7-320.6,3.7c-87.9,91.5-80.8,232.1,2.6,314.3
			C410.1,523.6,516,417.7,622.1,311.6z" fill="#7e8792"/>
	</g>
</g>
</svg>
