<?xml version="1.0" encoding="utf-8"?>
<!-- Generator: Adobe Illustrator 21.0.0, SVG Export Plug-In . SVG Version: 6.00 Build 0)  -->
<svg version="1.1" id="opacity_xA0_Image_1_" xmlns="http://www.w3.org/2000/svg" xmlns:xlink="http://www.w3.org/1999/xlink"
	 x="0px" y="0px" viewBox="0 0 200 200" style="enable-background:new 0 0 200 200;" xml:space="preserve">
<g>
	<g>
		<path d="M101.2,191.3c0-60.4,0-119.9,0-180.3c28.9,0.8,52.9,11.6,70.3,34.5c22.8,29.8,26.3,62.6,9.5,96.2
			C164.9,173.7,137.4,189.2,101.2,191.3z" fill="#7e8792"/>
		<path d="M47.2,39c-3.4,2.9-6.4,5.5-9.8,8.4c-1.1-0.9-3-2.5-5.3-4.4c3.2-3.4,6.1-6.4,9.5-10C43.5,35,45.1,36.7,47.2,39z" fill="#7e8792"/>
		<path d="M32.2,158.9c2.5-2.1,4.2-3.4,5.6-4.6c3,3,5.8,5.7,9,9c-1.4,1.6-2.9,3.4-4.8,5.5C38.7,165.4,35.6,162.3,32.2,158.9z" fill="#7e8792"/>
		<path d="M23.8,54.3c2.7,1.7,4.6,2.9,6.7,4.2c-1.9,3.7-3.6,7.2-5.6,11.3c-2.3-0.9-4.5-1.8-7.3-3C19.7,62.6,21.6,58.8,23.8,54.3z" fill="#7e8792"/>
		<path d="M11.1,93.9c0.8-4.8,1.5-9,2.2-13.7c2.8,0.7,5.2,1.3,7.7,1.9c-0.7,4.3-1.4,8.1-2.1,12.4C16.4,94.3,14.1,94.1,11.1,93.9z" fill="#7e8792"/>
		<path d="M21.1,119.9c-2.7,0.6-5,1.2-7.8,1.8c-0.7-4.7-1.4-8.9-2.1-13.6c2.7-0.3,5-0.5,7.7-0.8C19.6,111.5,20.3,115.3,21.1,119.9z" fill="#7e8792"/>
		<path d="M30.6,143.5c-2.1,1.3-4,2.5-6.7,4.2c-2.1-4.1-4.1-7.9-6.5-12.3c2.6-1.1,4.8-2,7.4-3.1C26.8,136,28.6,139.6,30.6,143.5z" fill="#7e8792"/>
		<path d="M53.1,24.6c4.4-2.3,8.2-4.2,12.4-6.4c1.1,2.7,2.1,4.9,3.1,7.3c-3.8,2-7.3,3.9-11.1,5.8C56.1,29.2,54.8,27.3,53.1,24.6z" fill="#7e8792"/>
		<path d="M92.6,190.7c-5.1-0.8-9.1-1.5-13.8-2.3c0.7-2.7,1.3-5,1.9-7.7c4.2,0.7,8.1,1.3,12.4,2C93,185.4,92.8,187.8,92.6,190.7z" fill="#7e8792"/>
		<path d="M78.7,13.6c4.9-0.8,9.2-1.5,14-2.3c0.2,2.9,0.3,5.1,0.5,7.8c-4.1,0.7-7.9,1.4-12.1,2.1C80.3,18.9,79.6,16.8,78.7,13.6z" fill="#7e8792"/>
		<path d="M68.6,176.6c-1,2.3-1.8,4.4-3,7.2c-4.2-2.1-8-4.1-12.3-6.3c1.6-2.5,2.8-4.6,4.2-6.8C61.2,172.7,64.7,174.5,68.6,176.6z" fill="#7e8792"/>
	</g>
</g>
</svg>
