<?xml version="1.0" encoding="utf-8"?>
<!-- Generator: Adobe Illustrator 21.0.0, SVG Export Plug-In . SVG Version: 6.00 Build 0)  -->
<svg version="1.1" id="saturation_xA0_Image_1_" xmlns="http://www.w3.org/2000/svg" xmlns:xlink="http://www.w3.org/1999/xlink"
	 x="0px" y="0px" viewBox="0 0 512 512" style="enable-background:new 0 0 512 512;" xml:space="preserve">
<g>
	<g>
		<path d="M120.5,256.9c0.2-75.1,61.6-136.5,136.6-136.4c75.1,0.1,136.5,61.6,136.4,136.6c-0.1,75.1-61.6,136.5-136.6,136.4
			C181.7,393.3,120.3,331.8,120.5,256.9z M156.5,264.1c2.3,53.8,50.4,97.4,104.9,95.1c57.6-2.4,95.1-52.7,95.8-95.1
			C290.4,264.1,223.7,264.1,156.5,264.1z" fill="#7e8792"/>
		<path d="M406.3,75.8c15.2,0.1,28.7,14.4,28.6,30.2c-0.1,15.1-14,28.7-29.1,28.5c-16.2-0.2-29.9-14.1-29.8-30.3
			C376.2,88.9,390.2,75.7,406.3,75.8z" fill="#7e8792"/>
		<path d="M75.8,104.3c0.1-15.4,14-28.5,30.1-28.4c15.2,0.1,28.7,14.2,28.6,30.1c-0.1,15.5-14.1,28.1-31,28
			C88.5,133.8,75.7,120.1,75.8,104.3z" fill="#7e8792"/>
		<path d="M405.9,435.2c-17.2-0.1-29.9-12.3-29.9-28.8c0.1-15.3,14.1-28.6,30.1-28.5c15.2,0,28.7,14.2,28.7,30
			C434.9,423.1,422,435.3,405.9,435.2z" fill="#7e8792"/>
		<path d="M103.8,434.1c-15.2,0.1-27.9-13.2-28-29.1c-0.1-15.4,12.5-27.7,28.5-27.8c16.9-0.1,30,12.3,30.2,28.6
			C134.6,421.5,121,434.1,103.8,434.1z" fill="#7e8792"/>
		<path d="M42.3,284.2c-15.6,0-29.3-13.3-29.3-28.7c0-15.5,13.6-29.2,29-29.2c15.3,0,28.9,13.7,29,29.3
			C71,272.1,59,284.1,42.3,284.2z" fill="#7e8792"/>
		<path d="M468.8,284.2c-15.7,0-29-13.3-29-28.9c0-15.5,13.8-29.2,29.1-29c15.4,0.2,28.9,14.1,28.8,29.4
			C497.5,272.4,485.5,284.2,468.8,284.2z" fill="#7e8792"/>
		<path d="M284.2,42.1c0,16.2-12.8,29-28.8,28.9c-15.5-0.1-29.2-13.9-29.1-29.2c0.2-15.4,13.9-28.9,29.4-28.8
			C270.8,13.1,284.2,26.7,284.2,42.1z" fill="#7e8792"/>
		<path d="M284.1,468.8c-0.1,15.5-13.8,29.1-29.2,28.9c-15.2-0.2-28.7-13.8-28.8-28.9c-0.1-15.3,13.6-29,29.1-29
			C270.9,439.8,284.2,453.2,284.1,468.8z" fill="#7e8792"/>
	</g>
</g>
</svg>
