<?xml version="1.0" encoding="utf-8"?>
<!-- Generator: Adobe Illustrator 21.0.0, SVG Export Plug-In . SVG Version: 6.00 Build 0)  -->
<svg version="1.1" id="sepia_xA0_Image_1_" xmlns="http://www.w3.org/2000/svg" xmlns:xlink="http://www.w3.org/1999/xlink" x="0px"
	 y="0px" viewBox="0 0 318 438" style="enable-background:new 0 0 318 438;" xml:space="preserve">
<g>
	<g>
		<path d="M27.8,428.5c-6.7-6.7-13.1-13.1-19.8-19.8c35.5-35.4,70.9-70.6,106.2-105.8c-0.2-0.5-0.4-1-0.6-1.5
			c-36.6,0-73.3,0-110.2,0c0-12.2,0-23.6,0-35.7c8.1,0,16,0,24.3,0c0-2.5,0-4.2,0-6c0-56.8,0.1-113.7-0.1-170.5
			c0-13.2,4.4-24,16-30.5c4.7-2.6,10.7-4.4,16.1-4.4c61.5-0.3,123-0.3,184.5-0.2c18.2,0,32.7,13.2,32.7,35.1
			c-0.1,56.8,0,113.7,0,170.5c0,1.8,0,3.6,0,6c10.9,0,21.3,0,32,0c0,12,0,23.4,0,35.5c-32.5,0-64.9,0-98,0
			c36.1,35.8,71.4,70.9,107,106.3c-7.7,7.6-14.3,14.1-21.2,20.9c-39.4-39.4-78.9-78.9-118.4-118.4c-0.4,0.3-0.9,0.5-1.3,0.8
			c0,39.2,0,78.4,0,117.9c-8.3,0-16,0-24.4,0c0-40.8,0-81.3,0-121.9c-0.5-0.3-1.1-0.7-1.6-1C109.8,346.2,69.3,387.6,27.8,428.5z
			 M152.2,237.1c34.4,0.1,62.3-27.9,62.9-62.1c0.6-34.5-28.1-63.8-62.9-63.8c-34.2,0-63,28.5-63.2,62.8
			C88.9,208.4,117.5,237,152.2,237.1z" fill="#7e8792"/>
		<path d="M86.6,39.6c34.5-26.2,91.6-34.7,131.9,0C174.3,39.6,130.5,39.6,86.6,39.6z" fill="#7e8792"/>
		<path d="M191.2,173.7c0.5,21.1-16.6,38.8-38.1,39.4c-21.7,0.6-39.6-16.2-39.8-38.6c-0.2-20.8,14.9-38.2,38.2-39.3
			C172.5,134.2,190.8,152.1,191.2,173.7z" fill="#7e8792"/>
	</g>
</g>
</svg>
