<?xml version="1.0" encoding="utf-8"?>
<!-- Generator: Adobe Illustrator 21.0.0, SVG Export Plug-In . SVG Version: 6.00 Build 0)  -->
<svg version="1.1" id="sharpen_xA0_Image_1_" xmlns="http://www.w3.org/2000/svg" xmlns:xlink="http://www.w3.org/1999/xlink"
	 x="0px" y="0px" viewBox="0 0 427 512" style="enable-background:new 0 0 427 512;" xml:space="preserve">
<g>
	<g>
		<path d="M210,511c-64.5,0-129,0-193.5,0c-9.9,0-14-6.4-10.2-15.8c8.7-21.6,17.2-43.2,26-64.8C46,396.6,59.8,362.8,73.5,329
			c12.9-31.8,25.8-63.7,38.7-95.5c12.6-31.1,25.4-62.1,38-93.2c9.7-23.8,19.2-47.7,28.9-71.5c8.1-20.1,16.4-40.1,24.6-60.1
			c1.2-2.8,2.1-5.9,6.3-5.8c4.2,0.1,5.6,3.1,6.9,6.1c10.4,25.5,20.7,51,30.9,76.5c12.5,31,24.8,61.9,37.3,92.9
			c9.5,23.4,19.2,46.7,28.6,70.1c12.5,30.9,24.8,62,37.4,92.9c12,29.6,24.2,59,36.3,88.6c9.1,22.3,18.1,44.7,27,67
			c3,7.4-1.8,14-10,14C339.6,511,274.8,511,210,511z M209.3,490c56.3,0,112.6,0,168.9,0c6.6,0,8.9-2.2,8.7-8.7
			c-0.1-2.2-1.1-4.5-1.9-6.6c-4.3-11.5-8.6-23-13-34.4c-4.1-10.4-8.3-20.8-12.5-31.2c-4.2-10.4-8.3-20.9-12.6-31.2
			c-4.9-11.9-10-23.8-14.9-35.7c-5.9-14.4-11.7-28.8-17.6-43.2c-3.5-8.5-7.1-16.9-10.6-25.4c-3.1-7.7-6-15.5-9.1-23.2
			c-3.1-7.6-6.4-15-9.4-22.6c-3-7.4-5.6-15-8.7-22.4c-3.4-8.4-7.2-16.6-10.6-25c-4.9-12.2-9.5-24.6-14.3-36.9
			c-3.7-9.5-7.4-18.9-11.3-28.4c-4.8-11.9-9.7-23.7-14.7-35.5c-3.3-7.9-7.1-15.7-10.3-23.7c-1-2.5-2.1-3.5-4.8-3.8
			c-5.2-0.6-6.6,2.7-8.1,6.7C198,71.1,193,83.6,188,96c-3.4,8.4-7.5,16.5-10.8,24.9c-4.7,11.9-8.9,24-13.6,35.9
			c-2.6,6.8-5.8,13.4-8.6,20.1c-3.8,9.3-7.3,18.7-11.1,27.9c-3.2,7.7-6.8,15.2-9.9,22.9c-5.3,13-10.3,26-15.4,39
			c-3.7,9.3-7.2,18.7-11,28c-4.3,10.5-8.8,20.8-13.2,31.3c-5.5,13.2-11.1,26.5-16.4,39.8c-3,7.4-5.2,15.1-8.2,22.6
			c-3,7.6-6.6,15-9.8,22.6c-3.7,8.9-7.2,17.9-11,26.8c-3.1,7.5-6.6,14.9-9.6,22.4c-2.1,5.1-4,10.3-5.7,15.6
			c-3.4,10.5-0.6,14.2,10.2,14.2C99,490,154.2,490,209.3,490z" fill="#7e8792"/>
	</g>
</g>
</svg>
