<?xml version="1.0" encoding="UTF-8" standalone="no"?>
<!-- Created with Inkscape (http://www.inkscape.org/) -->

<svg
   xmlns:dc="http://purl.org/dc/elements/1.1/"
   xmlns:cc="http://creativecommons.org/ns#"
   xmlns:rdf="http://www.w3.org/1999/02/22-rdf-syntax-ns#"
   xmlns:svg="http://www.w3.org/2000/svg"
   xmlns="http://www.w3.org/2000/svg"
   version="1.1"
   width="540"
   height="540"
   id="svg2">
  <defs
     id="defs4" />
  <metadata
     id="metadata6">
    <rdf:RDF>
      <cc:Work>
        <dc:format>image/svg+xml</dc:format>
        <dc:type
           rdf:resource="http://purl.org/dc/dcmitype/StillImage" />
        <dc:creator>
          <cc:Agent>
            <dc:title>MarianSigler, mariansigler@gmail.com</dc:title>
          </cc:Agent>
        </dc:creator>
        <cc:license
           rdf:resource="http://web.resource.org/cc/PublicDomain" />
        <dc:title></dc:title>
      </cc:Work>
      <cc:License
         rdf:about="http://web.resource.org/cc/PublicDomain">
        <cc:permits
           rdf:resource="http://web.resource.org/cc/Reproduction" />
        <cc:permits
           rdf:resource="http://web.resource.org/cc/Distribution" />
        <cc:permits
           rdf:resource="http://web.resource.org/cc/DerivativeWorks" />
        <cc:requires
           rdf:resource="http://web.resource.org/cc/ShareAlike" />
      </cc:License>
    </rdf:RDF>
  </metadata>
  <path
     d="m 511.48146,205.29524 c 11.90567,44.43259 11.90567,84.97693 0,129.40952 L 492.14515,345.19029 270,270 493.53533,195.79376 z"
     id="path8"
     style="fill:#fe2712" />
  <path
     d="m 334.70476,28.518543 c 44.43259,11.905676 79.54502,32.17785 112.07193,64.704761 L 444.36519,118.70294 270,270 313.3386,40.418827 z"
     id="path12"
     style="fill:#fb9902" />
  <path
     d="m 446.77669,93.223304 c 32.52692,32.526916 52.79909,67.639346 64.70477,112.071936 L 270,270 z"
     id="path10"
     style="fill:#fd5308" />
  <path
     d="M 93.223305,93.223305 C 125.75022,60.696393 160.86265,40.42422 205.29524,28.518543 l 22.8045,13.73642 L 270,270 94.864262,123.39591 z"
     id="path16"
     style="fill:#fefe33" />
  <path
     d="m 205.29524,28.518543 c 44.43259,-11.905676 84.97693,-11.905676 129.40952,0 L 270,270 z"
     id="path14"
     style="fill:#fabc02" />
  <path
     d="m 28.518543,334.70476 c -11.905676,-44.43259 -11.905676,-84.97693 0,-129.40952 l 27.01212,-14.378 L 270,270 52.691676,347.10701 z"
     id="path20"
     style="fill:#66b032" />
  <path
     d="M 28.518543,205.29524 C 40.424219,160.86265 60.696393,125.75022 93.223305,93.223305 L 270,270 z"
     id="path18"
     style="fill:#d0ea2b" />
  <path
     d="M 205.29524,511.48146 C 160.86265,499.57578 125.75022,479.30361 93.223305,446.7767 L 96.52195,414.33935 270,270 228.31647,499.62593 z"
     id="path24"
     style="fill:#0247fe" />
  <path
     d="M 93.223305,446.7767 C 60.696393,414.24978 40.42422,379.13735 28.518543,334.70476 L 270,270 z"
     id="path22"
     style="fill:#0391ce" />
  <path
     d="m 446.7767,446.7767 c -32.52692,32.52691 -67.63935,52.79908 -112.07194,64.70476 L 310.82732,497.94657 270,270 447.26044,424.19229 z"
     id="path28"
     style="fill:#8601af" />
  <path
     d="m 334.70476,511.48146 c -44.43259,11.90567 -84.97693,11.90567 -129.40952,0 L 270,270 z"
     id="path26"
     style="fill:#3d01a4" />
  <path
     d="M 511.48146,334.70476 C 499.57578,379.13735 479.30361,414.24978 446.7767,446.7767 L 270,270 511.48146,334.70476 z"
     id="path30"
     style="fill:#a7194b" />
  <circle
     cx="270"
     cy="270"
     r="153.79581"
     id="circle32"
     style="fill:#ffffff" />
</svg>
