<?xml version="1.0" encoding="utf-8"?>
<!-- Generator: Adobe Illustrator 21.0.0, SVG Export Plug-In . SVG Version: 6.00 Build 0)  -->
<svg version="1.1" id="switch_view_xA0_Image_1_" xmlns="http://www.w3.org/2000/svg" xmlns:xlink="http://www.w3.org/1999/xlink"
	 x="0px" y="0px" viewBox="0 0 508 508" style="enable-background:new 0 0 508 508;" xml:space="preserve">
<style type="text/css">
	.st0{fill:#E5E4E5;}
	.st1{fill:#040404;}
	.st2{fill:#060606;}
	.st3{fill:#424242;}
	.st4{fill:#373737;}
	.st5{fill:#070707;}
	.st6{fill:#393A3A;}
	.st7{fill:#3B3C3B;}
	.st8{fill:#CFCFCE;}
	.st9{fill:#CECECD;}
	.st10{fill:#1A1A1A;}
	.st11{fill:#1D1E1D;}
	.st12{fill:#020202;}
	.st13{fill:#6E6E6E;}
	.st14{fill:#292A2A;}
	.st15{fill:#CECECE;}
	.st16{fill:#F0F0EF;}
	.st17{fill:#171818;}
	.st18{fill:#1E1E1E;}
	.st19{fill:#E9E9E9;}
</style>
<g>
	<g>
		<path class="st0" d="M132.2,187.9c2-1.2,4.7-1.9,5.8-3.6c8.9-14.2,17.5-28.6,26.4-42.8c1.4-2.3,4.4-5.1,6.7-5.1
			c8.5,0,16.9,1.1,25.4,1.8c-2.4,3.5-4.7,7-7.1,10.5c7.5,11.2,14.9,22,22.3,32.9c5.5-3.1,10-5.6,16.2-9.1c1.1,1.7,2.4,3.6,3.6,5.6
			c0.8,1,1.6,2.1,2.4,3.1c7,9.9,14,19.7,21.6,30.5c3.4-4.6,5.8-7.7,8.1-10.8c0.7,6.7,4.1,3.1,6.7,1.6c8.2-4.7,15.8-11.6,26.6-6.8
			c1.4,0.6,4.9-0.8,6-2.2c6.7-9.7,13.1-19.7,20.6-31.3c-5.9-1.8-10.2-3.1-14.4-4.4c1.2-5.6,7.6-11,0.6-16.9c0.3-1,0.2-2.3,0.9-2.8
			c5.5-4.2,26-2.8,29.5,2.6c11.7,18.4,22.8,37.1,34.1,55.7c1.3,1.9,2.7,3.7,4,5.6c0,0.6,0,1.3,0.1,1.9c-0.8,2.1-1.5,4.1-2.2,6.2
			c-2.8,2.6-5.7,5.2-8.5,7.8c-1.8,1.6-3.5,3.2-5.3,4.8c-6.3,5.7-12.7,11.5-19,17.2l-0.8,0.2c-1.9-16.2-3.9-32.5-5.8-48.7
			c-1.1-0.1-2.2-0.1-3.3-0.2c-3.1,10.9-6.2,21.8-9.2,32.7c-0.7,2.7-2,5.5-2,8.2c-0.1,38.8,0,77.6,0,116.3c0.1,0.7,0.3,1.3,0.7,1.8
			c-0.3,3.9-0.6,7.8-0.8,11.7c-46.4,0-92.8,0-137.4,0c-2.7-4.5-4.5-7.3-6.2-10.1l-0.4-0.6c0-43.2-0.1-86.4-0.1-129.6
			c0-10.3,0-20.5,0-30.8c-1.1-0.1-2.2-0.1-3.3-0.2c-2.8,10.6-5.5,21.2-8.6,31.8c-0.6,2.1-2.7,3.7-4,5.5
			c-10.1-8.1-20.3-16.1-30.1-24.5c-1.7-1.5-2.1-4.6-3.1-7C130,193.6,131.1,190.8,132.2,187.9z"/>
		<path class="st1" d="M347.1,319.8c0-13.6,0-25.9,0-39.1c1.7-0.2,4.2-0.5,6.7-0.6c19.3-0.7,38.7-0.2,57.9-2.3
			c12.9-1.4,25.8-5.4,38.1-10c11.7-4.4,18.7-14.6,23.3-26c4.9-12.1-4.7-25.4-21-29.4c0,9,0,17.8,0,28.5
			c-19.3-13.5-37.3-26.2-56.2-39.5c17.8-13.5,35.1-26.6,54.5-41.3c0,14.3,0,26.5,0,36.3c13.2,5.9,24.3,10.1,34.6,15.7
			c23.4,12.8,24.5,35.5,13.6,55.7c-11.7,21.8-31.2,34.4-53.7,41.7c-15.6,5-32.1,8.2-48.5,9.9C380.5,321.1,364.4,319.8,347.1,319.8z"
			/>
		<path class="st2" d="M90.3,312.4c-20.3-0.8-38.5-5.5-55-15.2C20,288.3,9.4,275,6.3,257.4c-2.8-16.2,5.3-28.4,18.4-37
			c24.9-16.4,53.5-22.8,81.5-30.5c0.6,1.1,0.9,1.3,0.9,1.6c-0.3,16-0.3,16-15.2,21.4c-9.9,3.5-20,6.8-29.8,10.7
			c-5.5,2.2-10.7,5-15.7,8.2c-7,4.4-13.1,10.4-11.7,19.3c1.5,10.1,7.8,17.8,17.9,20.7c12.1,3.4,24.4,5.6,38.4,8.8
			c0.4-8.4,0.8-15.8,1.3-25.2c18.2,13.7,35.6,26.9,54,40.7c-18.9,13.3-36.8,26-55.9,39.4C90.3,327.1,90.3,320.2,90.3,312.4z"/>
		<path class="st3" d="M326.5,353.3c3.2,3.7,6.4,7.5,9.2,10.8c-0.2,1.1-0.1,1.4-0.3,1.7c-4.4,7.7-7.1,18.2-13.8,22.4
			c-6.2,3.9-16.7,1.4-25.3,1.4c-39.1,0.1-78.3,0-118,0c-4.1-7.9-8.2-15.8-12.3-23.7c4.4-0.3,8.9-0.6,13.3-0.9l-0.3,0.1
			c2.6,1,5.2,2.8,7.8,2.8c42.5,0.2,85,0.2,127.5,0c2.5,0,4.9-2,7.4-3.1c0,0-0.1-0.7-0.1-0.7l0.6-0.3
			C329.3,362.5,324.9,356.8,326.5,353.3z"/>
		<path class="st4" d="M263.6,200.9c-2.3,3.1-4.6,6.2-8.1,10.8c-7.6-10.8-14.6-20.6-21.6-30.5c-0.8-1-1.6-2.1-2.4-3.1
			c-1.2-1.9-2.5-3.9-3.6-5.6c-6.2,3.5-10.8,6-16.2,9.1c-7.4-10.9-14.7-21.7-22.3-32.9c2.3-3.5,4.7-7,7.1-10.5
			c3.7-4.1,7.4-8.2,11.1-12.4c4.1,4.8,8.1,9.6,12.2,14.4c6.4,11.1,12.4,22.3,19.2,33.1c5,7.9,10.9,15.1,17.4,23.9
			c7.1-15.2,13.5-28.6,19.5-42.2c2.1-4.7,3-9.9,4.4-14.8c3.2-5.9,6.4-11.8,9.6-17.7c6.6,6,13.2,12.1,19.9,18.1
			c6.9,5.9,0.6,11.3-0.6,16.9c-0.4,0-0.8,0.1-1.1,0.3c-6.9,1.7-6.5,6.8-5.8,12.1c-1.2,2.9-2.5,5.8-3.9,9.2c-4.3-1.6-7.9-2.4-11-4.1
			c-4.9-2.8-8-0.9-10.7,3c-0.3,0.6-0.6,1.2-0.9,1.8c-1.8,3.4-3.6,6.8-5.3,10.2c-0.5,0.4-0.8,1-0.8,1.6l0.2-0.2
			c-0.6,0.8-1.2,1.6-1.7,2.4C266.5,196.3,265.1,198.6,263.6,200.9z"/>
		<path class="st5" d="M289.9,122.7c-3.2,5.9-6.4,11.8-9.6,17.7c-20.2,0-40.4-0.1-60.5-0.1c-4.1-4.8-8.1-9.6-12.2-14.4
			c1.9-1.2,3.7-3.3,5.6-3.3C238.8,122.4,264.3,122.6,289.9,122.7z"/>
		<path class="st6" d="M128.8,196.5c1,2.4,1.3,5.5,3.1,7c9.9,8.4,20,16.4,30.1,24.5c1.3,1.4,2.7,2.8,4,4.2c0.7,1.3,1.4,2.5,2.1,3.8
			c-1.5,3.2-3.1,6.4-5,10.5c-15.1-9.3-29.7-18.1-43.9-27.4c-2-1.3-3.2-4.8-3.6-7.5c-0.6-4.2-0.3-8.5-0.3-12.8
			c0.3-2.3,0.5-4.6,0.8-6.9C120.3,193.5,124.6,195,128.8,196.5z"/>
		<path class="st7" d="M343.2,239.9c6.3-5.7,12.7-11.5,19-17.2c1.8-1.6,3.5-3.2,5.3-4.8c2.8-2.6,5.7-5.2,8.5-7.8
			c2-1.6,5.7-2.6,2.2-6.2c-0.1-0.6-0.1-1.3-0.1-1.9c3.5-0.7,8.3,2.6,9.8-3.6c0.9,0.3,2.6,0.6,2.6,1c0.5,6.8,1.6,13.8,0.8,20.5
			c-0.3,2.7-4.7,5.1-7.5,7.1c-11.1,7.8-22.3,15.4-34.9,24C346.9,247,345.1,243.5,343.2,239.9z"/>
		<path class="st8" d="M324.1,223.8c3.1-10.9,6.2-21.8,9.2-32.7c1.1,0.1,2.2,0.1,3.3,0.2c1.9,16.2,3.9,32.5,5.8,48.7
			C336.3,234.7,330.2,229.3,324.1,223.8z"/>
		<path class="st9" d="M166,232.2c-1.3-1.4-2.7-2.8-4-4.2c1.4-1.8,3.4-3.5,4-5.5c3.1-10.5,5.8-21.2,8.6-31.8
			c1.1,0.1,2.2,0.1,3.3,0.2c0,10.3,0,20.5,0,30.8c-3.5,3.5-7,7-10.5,10.5C167,232.3,166.5,232.3,166,232.2z"/>
		<path class="st10" d="M179.5,365c-4.4,0.3-8.9,0.6-13.3,0.9c3.9-4.9,7.9-9.8,11.8-14.6l0.4,0.6C178.8,356.3,179.2,360.6,179.5,365
			z"/>
		<path class="st11" d="M128.8,196.5c-4.3-1.5-8.5-3-12.8-4.5c-0.6-0.6-1.2-1.1-1.8-1.7c6-0.8,12-1.6,18-2.4
			C131.1,190.8,130,193.6,128.8,196.5z"/>
		<path class="st11" d="M387.9,198.4c-1.4,6.2-6.3,2.9-9.8,3.6c-1.3-1.9-2.7-3.7-4-5.6C378.8,197,383.4,197.7,387.9,198.4z"/>
		<path class="st12" d="M326.5,353.3c-1.6,3.4,2.7,9.2-4.1,10.6c0.1-0.7-0.1-1.3-0.4-1.9c0.3-3.9,0.6-7.8,0.8-11.7
			c0,0,0.8-0.1,0.8-0.1C324.6,351.2,325.6,352.3,326.5,353.3z"/>
		<path class="st13" d="M114.2,190.3c0.6,0.6,1.2,1.1,1.8,1.7c-0.3,2.3-0.5,4.6-0.8,6.9C114.9,196,114.6,193.1,114.2,190.3z"/>
		<path class="st14" d="M166,232.2c0.5,0.1,1,0.1,1.4-0.1c0.2,1.3,0.4,2.6,0.6,3.9C167.4,234.8,166.7,233.5,166,232.2z"/>
		<path class="st3" d="M323.7,350.2l-0.8,0.1c-0.4-0.5-0.6-1.2-0.7-1.8C322.7,349,323.2,349.6,323.7,350.2z"/>
		<path class="st15" d="M270.3,190.1c1.8-3.4,3.6-6.8,5.3-10.2c0.3-0.6,0.6-1.2,0.9-1.8c2.8-3.9,5.8-5.8,10.7-3
			c3.1,1.8,6.7,2.6,11,4.1c1.4-3.4,2.7-6.3,3.9-9.2c1.9-4,3.9-8.1,5.8-12.1c0.4-0.2,0.7-0.3,1.1-0.3c4.2,1.3,8.5,2.6,14.4,4.4
			c-7.6,11.6-13.9,21.6-20.6,31.3c-1,1.5-4.5,2.9-6,2.2c-10.8-4.8-18.4,2.1-26.6,6.8c-2.6,1.5-6,5.1-6.7-1.6c1.4-2.3,2.9-4.6,4.3-7
			c0.6-0.8,1.2-1.6,1.7-2.4l-0.2,0.2C269.8,191.2,270.1,190.6,270.3,190.1z"/>
		<path class="st16" d="M378.3,203.9c3.4,3.6-0.2,4.6-2.2,6.2C376.8,208,377.5,205.9,378.3,203.9z"/>
		<path class="st16" d="M367.5,217.9c-1.8,1.6-3.5,3.2-5.3,4.8C364,221.1,365.8,219.5,367.5,217.9z"/>
		<path class="st10" d="M231.5,178.1c0.8,1,1.6,2.1,2.4,3.1C233.1,180.2,232.3,179.2,231.5,178.1z"/>
		<path class="st17" d="M179.3,365.1c47.6-0.1,95.1-0.2,142.7-0.3c-2.5,1.1-4.9,3.1-7.4,3.1c-42.5,0.2-85,0.2-127.5,0
			C184.5,367.9,181.9,366.1,179.3,365.1z"/>
		<path class="st18" d="M219.8,140.3c20.2,0,40.4,0.1,60.5,0.1c-1.4,5-2.4,10.1-4.4,14.8c-6,13.6-12.4,26.9-19.5,42.2
			c-6.5-8.8-12.4-16.1-17.4-23.9C232.2,162.7,226.1,151.4,219.8,140.3z"/>
		<path class="st14" d="M308,158c-1.9,4-3.9,8.1-5.8,12.1C301.5,164.8,301.1,159.6,308,158z"/>
		<path class="st19" d="M269.7,191.6c-0.6,0.8-1.2,1.6-1.7,2.4C268.5,193.1,269.1,192.4,269.7,191.6z"/>
		<path class="st18" d="M276.6,178.1c-0.3,0.6-0.6,1.2-0.9,1.8C276,179.3,276.3,178.7,276.6,178.1z"/>
		<path class="st19" d="M270.3,190.1c-0.3,0.5-0.5,1.1-0.8,1.6C269.5,191.1,269.8,190.5,270.3,190.1z"/>
	</g>
</g>
</svg>
