<?xml version="1.0" encoding="utf-8"?>
<!-- Generator: Adobe Illustrator 21.0.0, SVG Export Plug-In . SVG Version: 6.00 Build 0)  -->
<svg version="1.1" id="_x31_77507-200_xA0_Image_1_"
	 xmlns="http://www.w3.org/2000/svg" xmlns:xlink="http://www.w3.org/1999/xlink" x="0px" y="0px" viewBox="0 0 200 200"
	 style="enable-background:new 0 0 200 200;" xml:space="preserve">
<g>
	<g>
		<path d="M93.5,170c-8.8,0-17.7-0.1-26.5,0c-4.3,0-5.7-1.5-4.5-5.8c2.8-9.7,5.2-19.6,7.9-29.4c0.6-2.1,1.9-4.3,3.4-5.9
			c14.8-15.8,29.7-31.5,44.7-47.1c1.6-1.7,4.5-2.9,6.8-3c17.6-0.2,35.3-0.2,53-0.1c5.6,0,6.1,0.8,4.7,6.2c-0.1,0.5-0.2,1-0.3,1.5
			c-2.8,10.2-4,21.4-9,30.5c-4.9,8.9-13.8,15.6-21,23.3c-8.4,9-16.8,18-25.5,26.8c-1.6,1.7-4.5,2.8-6.8,2.9
			C111.5,170.2,102.5,170,93.5,170z M80.8,130c17.2,0,33.2,0.1,49.1-0.1c1.5,0,3.2-1.6,4.3-2.8c12.4-13,24.8-26.1,37.1-39.2
			c0.7-0.8,1.3-1.7,2.1-2.8c-0.9-0.3-1.3-0.6-1.8-0.6c-15.2,0-30.3-0.1-45.5,0c-1.4,0-3.2,0.9-4.3,2
			C108.5,100.7,95.2,114.9,80.8,130z M68.7,164c17.2,0,33.5,0,49.8-0.1c0.9,0,2.5-0.7,2.7-1.4c2.5-8.7,4.8-17.4,7.2-26.4
			c-18,0-35,0-52.3,0C73.7,145.4,71.3,154.4,68.7,164z" fill="#fff"/>
		<path d="M94.6,100.9c-5.3-12.2-5.3-12.2,4.8-20.3c3.2-2.6,6.4-5.2,10.6-8.7c-7.1-1.1-13-2.3-19-2.9c-5.3-0.5-7.9-2.5-8.2-8.2
			c-0.3-6.1-1.8-12.1-3-19.2c-5,6.2-9.5,11.7-13.8,17.3c-1.9,2.5-3.7,3.2-6.8,1.9c-6.4-2.7-13-5.1-20.7-8.1
			c2.5,6.5,4.2,12.3,6.9,17.6c2.6,5.3,2,8.7-3.1,12c-4.9,3.1-9.1,7.2-14.7,11.7c6.7,1.1,12.2,2,17.8,2.8c8.4,1.2,8.3,1.1,9.5,9.5
			c0.8,5.6,1.7,11.1,2.8,17.9c4.7-5.9,9.1-10.6,12.7-15.9c2.9-4.2,5.8-4.7,10-2.5c2,1.1,4.2,1.8,6.6,2.7c-1.3,3.4-3.3,4.8-6.5,2.9
			c-3.5-2.2-5.5-0.8-7.7,2.2c-4.4,5.9-9,11.6-13.7,17.2c-0.9,1.1-2.7,2-4,1.9c-0.7,0-1.7-2.2-2-3.5c-1.2-7.2-2.4-14.5-3.3-21.7
			c-0.5-3.6-1.7-5.4-5.8-5.8c-7.1-0.6-14.2-1.9-21.2-3.1c-1.6-0.3-3.1-1.6-4.6-2.4c1-1.4,1.7-3.1,3-4.2c5.6-4.7,11.3-9.4,17.1-13.8
			c2.5-1.9,3.2-3.6,1.9-6.7c-3-7-5.7-14.2-8.3-21.4c-0.5-1.3-0.2-2.8-0.2-4.2c1.5,0,3.2-0.5,4.5,0c6.6,2.3,13.2,4.6,19.5,7.6
			c4.6,2.2,7.1,1,9.8-2.8c4-5.6,8.4-10.8,12.8-16c0.9-1.1,2.6-1.7,3.9-2.5c0.7,1.4,1.8,2.7,2.1,4.1c1.4,7.5,2.6,15.1,3.6,22.7
			c0.4,2.8,1.3,4,4.2,4.4c7.8,1,15.5,2.3,23.2,3.6c1.3,0.2,3.5,1.2,3.6,1.8c0,1.4-0.8,3.1-1.9,4.1c-5.8,5-11.8,9.8-17.9,14.5
			c-2.2,1.7-3.6,3.3-1.8,6.1C99.3,96.8,98.2,99.1,94.6,100.9z" fill="#fff"/>
		<path d="M72.3,95.9c-2.1,2.6-3.9,5-5.9,7.2c-0.8,0.9-2.3,1.8-3.2,1.6c-0.9-0.2-1.5-1.9-2.1-2.9c-0.2-0.4-0.1-1-0.2-1.5
			c-1.3-7.8-1.4-7.7-9.1-9.2c-1.6-0.3-3.1-1.4-4.6-2.2c1-1.4,1.7-3,2.9-4.2c1.8-1.7,3.8-3.2,6-4.9c-1.1-3-2.3-5.9-3.3-8.9
			c-1.1-3.4,0.1-4.8,3.5-4c0.2,0,0.3,0,0.5,0.1c6.5,4.3,11.2,2.4,14.8-4c0.5-0.9,2.4-1.7,3.2-1.4c0.9,0.4,1.7,1.9,2,3.1
			c0.7,2.9,1,5.9,1.5,9c3.1,0.5,6.1,0.8,8.9,1.5c1.3,0.3,2.8,1.3,3.3,2.4c0.3,0.6-1.1,2.1-1.8,3.2c-0.1,0.1-0.3,0.2-0.4,0.3
			c-6.2,5.4-6.1,5.4-3.5,13.6c0.4,1.3,0.6,3.3-0.1,4.1c-0.6,0.7-2.6,0.5-4,0.2c-1.4-0.3-2.8-1-4.2-1.6C75.2,96.9,74,96.5,72.3,95.9z
			 M59.7,73.8c3.3,5.8,1.5,9.6-3.7,12.8c6.8-0.4,9.1,3.1,9.6,9.3c2.9-6,7-6.5,12.7-3.7c-4-5.8-1.8-9.5,3.4-12.8
			c-6.8,0.5-9.3-2.9-9.5-9.1C68.9,75.7,65.3,77.3,59.7,73.8z" fill="#fff"/>
		<path d="M92.9,60.3c-0.3-1.3-1.4-3.3-0.9-3.8c2.9-3.3,6.2-6.4,9.4-9.4c0.4-0.4,2.1-0.1,2.6,0.5c0.5,0.5,0.9,2.1,0.5,2.6
			c-3,3.3-6.2,6.4-9.3,9.6C94.9,60,94.3,59.9,92.9,60.3z" fill="#fff"/>
		<path d="M53.6,37c0.6-0.7,1.2-2.3,2.1-2.3c0.9-0.1,2.6,0.9,2.9,1.8c1.3,3.6,2.3,7.3,3.1,11c0.2,1-0.9,2.2-1.4,3.3
			c-1.1-0.6-2.8-0.9-3.1-1.7C55.9,45.3,54.9,41.5,53.6,37z" fill="#fff"/>
		<path d="M34.2,76.3c-4.4-1.1-8.2-1.9-11.8-3.1c-0.9-0.3-1.4-1.9-2.1-2.8c1-0.6,2.2-1.9,3.1-1.7c3.8,0.6,7.5,1.5,11.1,2.6
			c1,0.3,2.3,2,2.2,2.7C36.4,75,34.9,75.7,34.2,76.3z" fill="#fff"/>
		<path d="M33.8,119.7c-0.1-1.5-1-3.5-0.3-4.3c2.7-3.2,5.7-6,8.8-8.8c0.5-0.5,2.2-0.2,3,0.3c0.5,0.3,0.9,2.2,0.5,2.6
			c-3.1,3.4-6.5,6.6-9.8,9.8C35.8,119.5,35.3,119.4,33.8,119.7z" fill="#fff"/>
	</g>
</g>
</svg>
